<svg width="104" height="60" viewBox="0 0 104 60" fill="none" xmlns="http://www.w3.org/2000/svg">
<path d="M1.09787 59.0304H0.295593V50.7121C0.548943 50.6277 0.84452 50.5432 1.18232 50.501C1.56234 50.4166 2.02682 50.3743 2.57574 50.3743C3.04022 50.3743 3.46247 50.4588 3.84249 50.5854C4.22252 50.7543 4.56031 50.9655 4.81366 51.2188C5.06701 51.5144 5.27813 51.8522 5.44703 52.2322C5.61593 52.6545 5.65816 53.0767 5.65816 53.6256C5.65816 54.0901 5.61594 54.5546 5.48926 54.9346C5.36259 55.3569 5.19369 55.6947 4.94034 55.948C4.68699 56.2436 4.39142 56.4547 4.05362 56.6236C3.71582 56.7925 3.29356 56.877 2.82909 56.877C2.40684 56.877 2.06904 56.8347 1.73124 56.7081C1.43567 56.5814 1.22454 56.4969 1.05564 56.3703V59.0304H1.09787ZM1.09787 55.6524C1.18232 55.6947 1.26677 55.7791 1.35122 55.8213C1.47789 55.9058 1.60457 55.948 1.73124 55.9902C1.85792 56.0325 2.02682 56.0747 2.19572 56.1169C2.36461 56.1591 2.53352 56.1591 2.74464 56.1591C3.12467 56.1591 3.46247 56.0747 3.71582 55.948C3.96917 55.8213 4.18029 55.6524 4.34919 55.3991C4.51809 55.188 4.64477 54.8924 4.68699 54.5968C4.77144 54.3012 4.81366 53.9634 4.81366 53.6256C4.81366 52.7812 4.60254 52.1478 4.18029 51.7255C3.75804 51.3033 3.20912 51.0499 2.53352 51.0499C2.15349 51.0499 1.81569 51.0499 1.60457 51.0922C1.35122 51.1344 1.18232 51.1766 1.05564 51.2188V55.6524H1.09787ZM13.4276 56.5814C13.1742 56.6658 12.8786 56.7081 12.4986 56.7925C12.1186 56.877 11.6119 56.9192 11.0207 56.9192C10.5563 56.9192 10.1762 56.8347 9.83843 56.7081C9.54286 56.5814 9.24728 56.3703 9.07838 56.1169C8.86726 55.8636 8.74058 55.568 8.65613 55.188C8.57168 54.8502 8.52946 54.4279 8.52946 54.0057V50.4588H9.33173V53.7523C9.33173 54.2168 9.37396 54.5968 9.41618 54.8924C9.50063 55.188 9.58508 55.4413 9.71175 55.6524C9.83843 55.8636 10.0496 55.9902 10.2607 56.0747C10.4718 56.1591 10.7674 56.2014 11.1052 56.2014C11.4852 56.2014 11.823 56.2014 12.0764 56.1591C12.3719 56.1169 12.5408 56.0747 12.5831 56.0325V50.501H13.3853V56.5814H13.4276ZM17.4811 50.881C17.6078 50.7966 17.8612 50.6699 18.1567 50.5432C18.4523 50.4165 18.8323 50.3743 19.2546 50.3743C19.7191 50.3743 20.0991 50.4588 20.4791 50.6277C20.8169 50.7966 21.1125 51.0077 21.3658 51.3033C21.6192 51.5989 21.7881 51.9367 21.9148 52.3589C22.0414 52.7812 22.0837 53.2034 22.0837 53.6679C22.0837 54.1746 21.9992 54.639 21.8725 55.0613C21.7036 55.4835 21.4925 55.8213 21.2392 56.0747C20.9858 56.3703 20.648 56.5814 20.268 56.7081C19.888 56.877 19.4657 56.9192 19.0012 56.9192C18.4523 56.9192 17.9878 56.877 17.6078 56.7925C17.2278 56.7081 16.9322 56.6236 16.7211 56.5814V47.4608L17.5234 47.3341V50.881H17.4811ZM17.4811 56.0325C17.6078 56.0747 17.7767 56.1169 18.0301 56.1591C18.2834 56.2014 18.579 56.2014 18.959 56.2014C19.6346 56.2014 20.1835 55.9902 20.6058 55.5258C21.028 55.1035 21.2392 54.4279 21.2392 53.6256C21.2392 53.2878 21.1969 52.95 21.1125 52.6545C21.028 52.3589 20.9014 52.0633 20.7747 51.8522C20.6058 51.6411 20.3947 51.43 20.1413 51.3033C19.888 51.1766 19.5502 51.0922 19.1701 51.0922C19.0012 51.0922 18.7901 51.0922 18.6212 51.1344C18.4523 51.1766 18.2834 51.2188 18.1567 51.2611C18.0301 51.3033 17.9034 51.3877 17.7767 51.4299C17.65 51.5144 17.5656 51.5566 17.5234 51.5988V56.0325H17.4811ZM26.6017 56.877C26.3484 56.877 26.095 56.8347 25.8839 56.7925C25.6728 56.7503 25.5039 56.6236 25.3772 56.4969C25.2505 56.3703 25.1239 56.2014 25.0816 55.9902C24.9972 55.7791 24.9972 55.5258 24.9972 55.2302V47.4608L25.7995 47.3341V55.2302C25.7995 55.4413 25.7995 55.568 25.8417 55.6947C25.8839 55.8213 25.9261 55.9058 26.0106 55.9902C26.095 56.0747 26.1795 56.1169 26.3062 56.1591C26.4328 56.2014 26.5595 56.2014 26.7284 56.2436L26.6017 56.877ZM30.2753 48.6009C30.2753 48.7698 30.2331 48.9387 30.1064 49.0653C29.9797 49.192 29.8531 49.2343 29.6842 49.2343C29.5153 49.2343 29.3886 49.192 29.2619 49.0653C29.1352 48.9387 29.093 48.812 29.093 48.6009C29.093 48.432 29.1352 48.2631 29.2619 48.1364C29.3886 48.0097 29.5153 47.9675 29.6842 47.9675C29.8531 47.9675 29.9797 48.0097 30.1064 48.1364C30.2331 48.2631 30.2753 48.3898 30.2753 48.6009ZM30.0642 56.7925H29.2619V50.501H30.0642V56.7925ZM35.9757 56.9192C35.469 56.9192 35.0467 56.8347 34.6667 56.7081C34.2867 56.5392 33.9911 56.328 33.7377 56.0325C33.4844 55.7369 33.3155 55.3991 33.1888 55.0191C33.0621 54.5968 32.9777 54.1746 32.9777 53.6679C32.9777 53.1612 33.0621 52.7389 33.1888 52.3167C33.3155 51.8944 33.5266 51.5566 33.78 51.2611C34.0333 50.9655 34.3289 50.7543 34.7089 50.5854C35.0467 50.4165 35.469 50.3321 35.9334 50.3321C36.2712 50.3321 36.609 50.3743 36.9046 50.4166C37.2002 50.4588 37.4113 50.5432 37.5802 50.6277L37.3691 51.3033C37.2002 51.2188 37.0313 51.1766 36.8202 51.0922C36.609 51.0499 36.3557 51.0077 36.0179 51.0077C35.3001 51.0077 34.7934 51.2188 34.4133 51.6833C34.0333 52.1478 33.8644 52.7811 33.8644 53.5834C33.8644 53.9634 33.9066 54.3012 33.9911 54.5968C34.0755 54.8924 34.2022 55.188 34.3711 55.3991C34.54 55.6102 34.7934 55.7791 35.0889 55.9058C35.3845 56.0325 35.7223 56.0747 36.1446 56.0747C36.4824 56.0747 36.7779 56.0325 36.9891 55.948C37.2002 55.8636 37.3691 55.8213 37.4958 55.7369L37.6647 56.4125C37.538 56.4969 37.2846 56.5814 36.9891 56.6658C36.6513 56.877 36.3135 56.9192 35.9757 56.9192ZM50.2477 50.3743C50.501 50.3743 50.7544 50.3743 50.9655 50.4166C51.1766 50.4588 51.3455 50.501 51.43 50.5432L51.2611 51.2188C51.1766 51.1766 51.05 51.1344 50.8811 51.1344C50.6699 51.0922 50.4166 51.0922 50.0788 51.0922C49.741 51.0922 49.4454 51.1344 49.2765 51.1766C49.0654 51.2188 48.9387 51.2611 48.8543 51.3033V56.8347H48.052V50.8388C48.2631 50.7544 48.5165 50.6699 48.8965 50.5854C49.2765 50.4165 49.741 50.3743 50.2477 50.3743ZM53.4568 53.6256C53.4568 53.0767 53.5412 52.6123 53.7101 52.19C53.879 51.7678 54.0902 51.4299 54.3435 51.1766C54.5969 50.881 54.8924 50.7121 55.2302 50.5432C55.568 50.4165 55.9058 50.3321 56.2436 50.3321C57.0037 50.3321 57.6371 50.5855 58.1015 51.0922C58.566 51.5989 58.7771 52.3589 58.7771 53.4145V53.7945H54.3435C54.3857 54.5546 54.5546 55.1457 54.9347 55.568C55.2725 55.9902 55.8636 56.2014 56.6237 56.2014C57.0459 56.2014 57.3837 56.1591 57.6371 56.0747C57.8904 55.9902 58.0593 55.9058 58.186 55.8636L58.3127 56.5392C58.186 56.6236 57.9748 56.6658 57.6793 56.7503C57.3837 56.8347 57.0037 56.877 56.5814 56.877C56.0325 56.877 55.568 56.7925 55.188 56.6236C54.808 56.4547 54.4702 56.2436 54.2168 55.948C53.9635 55.6524 53.7946 55.3146 53.6679 54.8924C53.499 54.5546 53.4568 54.1323 53.4568 53.6256ZM57.9326 53.1189C57.9326 52.4433 57.7637 51.9366 57.4682 51.5988C57.1726 51.2188 56.7503 51.0499 56.2436 51.0499C55.9481 51.0499 55.6947 51.0921 55.4836 51.2188C55.2725 51.3455 55.0613 51.4722 54.8924 51.6833C54.7235 51.8944 54.5969 52.1056 54.5124 52.3589C54.428 52.6123 54.3435 52.8656 54.3435 53.1612H57.9326V53.1189ZM63.2952 56.877C63.0419 56.877 62.7885 56.8347 62.5774 56.7925C62.3662 56.7503 62.1973 56.6236 62.0707 56.4969C61.944 56.3703 61.8173 56.2014 61.7751 55.9902C61.6907 55.7791 61.6906 55.5258 61.6906 55.2302V47.4608L62.4929 47.3341V55.2302C62.4929 55.4413 62.4929 55.568 62.5351 55.6947C62.5774 55.8213 62.6196 55.9058 62.704 55.9902C62.7885 56.0747 62.8729 56.1169 62.9996 56.1591C63.1263 56.2014 63.253 56.2014 63.4219 56.2436L63.2952 56.877ZM67.8977 50.3321C68.32 50.3321 68.6578 50.3743 68.9533 50.501C69.2489 50.6277 69.46 50.7966 69.6712 51.0077C69.8401 51.2188 69.9667 51.4722 70.0512 51.7255C70.1356 52.0211 70.1779 52.3167 70.1779 52.6545V56.6236C70.0934 56.6658 69.9667 56.6658 69.8401 56.7081C69.6712 56.7503 69.5023 56.7503 69.2911 56.7925C69.08 56.8347 68.8689 56.8347 68.6155 56.877C68.3622 56.877 68.1088 56.9192 67.8555 56.9192C67.5177 56.9192 67.2221 56.877 66.9265 56.7925C66.631 56.7081 66.4198 56.6236 66.2087 56.4547C65.9976 56.2858 65.8287 56.0747 65.702 55.8636C65.5753 55.6102 65.5331 55.3146 65.5331 54.9768C65.5331 54.639 65.6176 54.3435 65.7442 54.0901C65.8709 53.8368 66.0398 53.6256 66.2932 53.499C66.5465 53.3723 66.7999 53.2456 67.1377 53.1612C67.4755 53.0767 67.8133 53.0345 68.1933 53.0345H68.5733C68.7 53.0345 68.8267 53.0767 68.9533 53.0767C69.08 53.0767 69.1645 53.1189 69.2489 53.1189C69.3334 53.1189 69.3756 53.1612 69.4178 53.1612V52.7812C69.4178 52.57 69.4178 52.3589 69.3756 52.1478C69.3334 51.9367 69.2911 51.7677 69.1645 51.5988C69.0378 51.4299 68.9111 51.3033 68.7 51.1766C68.4889 51.0921 68.2355 51.0077 67.8977 51.0077C67.4332 51.0077 67.0954 51.0499 66.8843 51.0922C66.6732 51.1766 66.5043 51.2188 66.3776 51.2611L66.2509 50.5854C66.3776 50.501 66.5887 50.4588 66.8843 50.4166C67.1377 50.3743 67.5177 50.3321 67.8977 50.3321ZM67.9822 56.2014C68.2777 56.2014 68.5733 56.2014 68.7844 56.1591C68.9956 56.1591 69.2067 56.1169 69.3756 56.0747V53.879C69.2911 53.8368 69.1645 53.7945 68.9533 53.7523C68.7422 53.7101 68.4889 53.6679 68.1511 53.6679C67.9399 53.6679 67.771 53.6679 67.5599 53.7101C67.3488 53.7523 67.1377 53.7946 66.9688 53.879C66.7999 53.9635 66.631 54.0901 66.5465 54.259C66.4198 54.4279 66.3776 54.639 66.3776 54.8924C66.3776 55.1457 66.4198 55.3146 66.5043 55.4835C66.5887 55.6524 66.6732 55.7791 66.8421 55.8636C66.9688 55.948 67.1377 56.0325 67.3488 56.0747C67.5177 56.2014 67.7288 56.2014 67.9822 56.2014ZM74.1048 50.501H76.5961V51.1766H74.1048V54.5124C74.1048 54.8502 74.147 55.1457 74.1892 55.3991C74.2315 55.6102 74.3581 55.7791 74.4426 55.9058C74.5693 56.0325 74.6959 56.1169 74.8648 56.1591C75.0337 56.2014 75.2026 56.2014 75.4137 56.2014C75.7515 56.2014 76.0049 56.1591 76.216 56.0747C76.4272 55.9902 76.596 55.9058 76.6805 55.8636L76.8916 56.5392C76.7649 56.6236 76.596 56.7081 76.3005 56.7925C76.0049 56.877 75.7093 56.9192 75.3715 56.9192C74.9915 56.9192 74.6537 56.877 74.4004 56.7503C74.147 56.6658 73.9359 56.4969 73.767 56.2858C73.5981 56.0747 73.5136 55.8213 73.4292 55.5258C73.3447 55.2302 73.3447 54.8502 73.3447 54.4279V48.6431L74.147 48.5164V50.501H74.1048ZM80.2696 48.6009C80.2696 48.7698 80.2274 48.9387 80.1007 49.0653C79.974 49.192 79.8474 49.2343 79.6785 49.2343C79.5096 49.2343 79.3829 49.192 79.2562 49.0653C79.1295 48.9387 79.0873 48.812 79.0873 48.6009C79.0873 48.432 79.1295 48.2631 79.2562 48.1364C79.3829 48.0097 79.5096 47.9675 79.6785 47.9675C79.8474 47.9675 79.974 48.0097 80.1007 48.1364C80.2274 48.2631 80.2696 48.3898 80.2696 48.6009ZM80.0585 56.7925H79.2562V50.501H80.0585V56.7925ZM88.7146 53.6256C88.7146 54.1323 88.6302 54.5546 88.5035 54.9768C88.3768 55.3991 88.1657 55.7369 87.9123 55.9902C87.659 56.2436 87.3634 56.4969 87.0256 56.6658C86.6878 56.8347 86.3078 56.9192 85.8855 56.9192C85.4633 56.9192 85.0833 56.8347 84.7455 56.6658C84.4077 56.4969 84.1121 56.2858 83.8587 55.9902C83.6054 55.6947 83.3943 55.3569 83.2676 54.9768C83.1409 54.5546 83.0565 54.1323 83.0565 53.6256C83.0565 53.1189 83.1409 52.6967 83.2676 52.2744C83.3943 51.8522 83.6054 51.5144 83.8587 51.2188C84.1121 50.9232 84.4077 50.7121 84.7455 50.5432C85.0833 50.3743 85.4633 50.2899 85.8855 50.2899C86.3078 50.2899 86.6878 50.3743 87.0256 50.5432C87.3634 50.7121 87.659 50.9232 87.9123 51.2188C88.1657 51.5144 88.3768 51.8522 88.5035 52.2744C88.6724 52.6967 88.7146 53.1612 88.7146 53.6256ZM87.8701 53.6256C87.8701 52.8234 87.7012 52.2322 87.3212 51.7255C86.9412 51.2611 86.4767 51.0077 85.8433 51.0077C85.2099 51.0077 84.7032 51.2611 84.3654 51.7255C83.9854 52.19 83.8165 52.8234 83.8165 53.6256C83.8165 54.4279 83.9854 55.0191 84.3654 55.4835C84.7455 55.948 85.2099 56.1591 85.8433 56.1591C86.4767 56.1591 86.9834 55.948 87.3212 55.4835C87.7012 55.0613 87.8701 54.4279 87.8701 53.6256ZM91.6281 50.7121C91.8815 50.6277 92.177 50.5855 92.5571 50.501C92.9371 50.4166 93.4438 50.3743 94.035 50.3743C94.4994 50.3743 94.9217 50.4588 95.2172 50.5854C95.5128 50.7121 95.8084 50.9232 95.9773 51.1766C96.1884 51.4299 96.3151 51.7255 96.3995 52.1055C96.484 52.4433 96.5262 52.8656 96.5262 53.2878V56.7925H95.7239V53.5412C95.7239 53.0767 95.6817 52.7389 95.6395 52.4011C95.5973 52.0633 95.4706 51.8522 95.3439 51.6411C95.2172 51.4299 95.0061 51.3033 94.795 51.2188C94.5839 51.1344 94.2883 51.0922 93.9083 51.0922C93.5282 51.0922 93.2327 51.0922 92.9371 51.1344C92.6838 51.1766 92.4726 51.2188 92.3882 51.2611V56.7925H91.5859V50.7121H91.6281ZM101.044 56.2436C101.509 56.2436 101.889 56.1591 102.184 56.0325C102.48 55.8636 102.649 55.6102 102.649 55.2724C102.649 55.1035 102.607 54.9768 102.564 54.8502C102.522 54.7235 102.438 54.6391 102.311 54.5124C102.184 54.3857 102.015 54.3012 101.847 54.2168C101.635 54.1323 101.382 54.0057 101.129 53.9212C100.875 53.8368 100.664 53.7101 100.453 53.6256C100.242 53.5412 100.073 53.4145 99.9042 53.2878C99.7353 53.1612 99.6086 52.9923 99.5242 52.8234C99.4397 52.6545 99.3975 52.4011 99.3975 52.1478C99.3975 51.6411 99.6086 51.2188 99.9887 50.9233C100.369 50.6277 100.918 50.4588 101.593 50.4588C102.015 50.4588 102.395 50.501 102.649 50.5854C102.944 50.6699 103.113 50.7121 103.24 50.7966L103.071 51.5144C102.987 51.4722 102.818 51.3877 102.564 51.3033C102.353 51.2188 101.973 51.1766 101.551 51.1766C101.382 51.1766 101.213 51.1766 101.044 51.2188C100.875 51.261 100.749 51.3033 100.622 51.3877C100.495 51.4722 100.411 51.5566 100.326 51.6833C100.242 51.81 100.2 51.9366 100.2 52.1055C100.2 52.2744 100.242 52.4433 100.284 52.5278C100.369 52.6545 100.453 52.7389 100.58 52.8656C100.706 52.9923 100.875 53.0345 101.044 53.1189C101.213 53.2034 101.424 53.2878 101.678 53.3723C101.931 53.4567 102.142 53.5834 102.395 53.6679C102.607 53.7523 102.818 53.879 102.987 54.0479C103.156 54.1746 103.282 54.3435 103.409 54.5546C103.493 54.7657 103.578 55.0191 103.578 55.3146C103.578 55.8636 103.367 56.328 102.944 56.6236C102.522 56.9192 101.931 57.0459 101.213 57.0459C100.664 57.0459 100.242 57.0036 99.9464 56.9192C99.6509 56.8347 99.4397 56.7503 99.3553 56.7081L99.5664 55.9902C99.6086 55.9902 99.6509 56.0325 99.7353 56.0747C99.8198 56.1169 99.9464 56.1591 100.073 56.2014C100.2 56.2436 100.369 56.2858 100.58 56.328C100.58 56.2014 100.791 56.2436 101.044 56.2436Z" fill="#676868"/>
<path d="M96.5262 4.30695L104 8.65612L96.5262 12.9631" fill="#16A8DB"/>
<path d="M89.0524 8.65611L96.5262 12.9631L89.0524 17.27V8.65611ZM89.0524 0L96.5262 4.30694L89.0524 8.65611" fill="#676868"/>
<path d="M9.88063 38.7203C9.54283 38.8892 9.12058 39.1003 8.52944 39.3114C7.98051 39.5226 7.22046 39.6492 6.29151 39.6492C5.74259 39.6492 5.23589 39.607 4.77142 39.4803C4.34917 39.3537 3.96914 39.1425 3.67357 38.847C3.37799 38.5092 3.12464 38.0447 2.95575 37.4535C2.78685 36.8202 2.70239 36.0179 2.70239 35.0045V25.5039H8.69834V23.1393H2.70239V17.0167L0 17.5234V34.7089C0 35.9334 0.0844486 37.0313 0.295573 37.918C0.506698 38.847 0.844501 39.607 1.30898 40.2404C1.77345 40.8738 2.44904 41.3382 3.25132 41.6338C4.05359 41.9294 5.02477 42.0983 6.16484 42.0983C7.13602 42.0983 8.06496 41.9716 8.90946 41.676C9.75396 41.3804 10.3451 41.1693 10.6829 40.916L10.8096 40.8315L10.134 38.5092L9.88063 38.7203ZM22.0414 22.8859C21.3658 22.7593 20.648 22.717 19.8879 22.717C18.4101 22.717 17.1011 22.8437 16.0455 23.1393C14.9899 23.3926 14.1876 23.6882 13.5964 23.9416L13.4698 23.9838V41.7183H16.1721V25.6728C16.341 25.5883 16.6366 25.5039 17.1855 25.3772C17.7767 25.2505 18.5367 25.1661 19.5079 25.1661C20.4369 25.1661 21.1969 25.2083 21.7458 25.335C22.4214 25.4617 22.717 25.5461 22.8437 25.6305L23.097 25.7572L23.646 23.3504L23.4771 23.266C23.2237 23.1393 22.7592 23.0126 22.0414 22.8859ZM27.9951 15.7921C27.4884 15.7921 27.024 15.961 26.6439 16.3411C26.2639 16.6789 26.095 17.1856 26.095 17.7767C26.095 18.3679 26.2639 18.8746 26.6439 19.2124C27.024 19.5502 27.4462 19.7613 27.9951 19.7613C28.5018 19.7613 28.9663 19.5924 29.3463 19.2124C29.7264 18.8746 29.8953 18.3679 29.8953 17.7767C29.8953 17.1856 29.7264 16.6789 29.3463 16.3411C28.9663 15.961 28.5018 15.7921 27.9951 15.7921ZM26.6439 23.0548H29.3463V41.7183H26.6439V23.0548Z" fill="#16A8DB"/>
<path d="M48.8542 25.4194C48.1364 24.5327 47.2496 23.8571 46.194 23.3926C45.1384 22.9281 43.9561 22.6748 42.6049 22.6748C41.3804 22.6748 40.3247 22.8437 39.3958 23.1815C38.7202 23.4348 38.1713 23.6882 37.749 23.9415V17.0589L35.0466 17.5656V41.0849L35.1733 41.1271C35.8489 41.3804 36.7356 41.5916 37.8335 41.8027C38.8891 42.0138 40.2825 42.1405 41.8871 42.1405C43.2383 42.1405 44.505 41.9293 45.6029 41.4649C46.7007 41.0004 47.7141 40.367 48.5164 39.5225C49.3187 38.678 49.952 37.6646 50.4165 36.4401C50.8388 35.2578 51.0921 33.8644 51.0921 32.3865C51.0921 30.9931 50.9232 29.6841 50.5432 28.5018C50.1209 27.3618 49.572 26.3061 48.8542 25.4194ZM48.1786 32.4287C48.1786 34.7511 47.5874 36.5668 46.4474 37.7913C45.3073 39.0158 43.745 39.6492 41.8448 39.6492C40.747 39.6492 39.818 39.607 39.1424 39.4803C38.5513 39.3959 38.0868 39.3114 37.749 39.1847V26.6861C37.9601 26.5595 38.1713 26.3906 38.4246 26.2217C38.7202 26.0528 39.1002 25.8839 39.5225 25.715C39.9447 25.5461 40.367 25.4194 40.8737 25.335C41.3381 25.2505 41.8448 25.1661 42.3938 25.1661C43.4916 25.1661 44.4206 25.3772 45.1384 25.7572C45.8562 26.1372 46.4474 26.6439 46.9118 27.2773C47.3763 27.9107 47.7141 28.713 47.883 29.5575C48.0941 30.4864 48.1786 31.4153 48.1786 32.4287ZM62.704 22.6326C61.6483 22.6326 60.6349 22.8437 59.6638 23.2237C58.6926 23.6037 57.8059 24.2371 57.0458 25.0394C56.2858 25.8417 55.6524 26.8973 55.1879 28.0796C54.7234 29.3041 54.4701 30.7398 54.4701 32.3443C54.4701 33.7377 54.639 35.0467 54.9768 36.229C55.3146 37.4113 55.8635 38.4669 56.6236 39.3114C57.3836 40.1981 58.3548 40.8737 59.4949 41.3382C60.6349 41.8027 62.0706 42.056 63.6751 42.056C64.8997 42.056 65.9975 41.9293 66.9265 41.676C67.8554 41.4226 68.4888 41.1693 68.8266 41.0004L68.9533 40.916L68.4466 38.5091L68.1932 38.6358C67.8554 38.8047 67.3487 38.9736 66.6309 39.227C65.9131 39.4381 64.9419 39.5648 63.7174 39.5648C61.5217 39.5648 59.9171 38.9736 58.9459 37.8335C57.9748 36.7357 57.4258 35.0889 57.3414 33.0199H70.1355L70.1778 32.851C70.22 32.6821 70.22 32.5132 70.22 32.3021V31.7109C70.22 28.6285 69.5444 26.3061 68.151 24.8283C66.842 23.3926 64.9841 22.6326 62.704 22.6326ZM67.4332 30.7397H57.4258C57.4681 30.0641 57.637 29.3886 57.8903 28.713C58.1437 27.9951 58.5237 27.404 58.9882 26.8551C59.4526 26.3061 60.0016 25.8839 60.6349 25.5883C61.2683 25.2927 61.9439 25.1238 62.7462 25.1238C64.2241 25.1238 65.3641 25.6305 66.1664 26.6439C66.9265 27.6151 67.3909 28.9663 67.4332 30.7397ZM86.9411 38.7203C86.6455 38.8892 86.181 39.0581 85.5054 39.2692C84.8721 39.4803 84.0276 39.607 83.0986 39.607C81.9163 39.607 80.9451 39.4381 80.1429 39.0581C79.3406 38.7203 78.665 38.2136 78.1583 37.5802C77.6516 36.9468 77.2716 36.1868 77.0604 35.3423C76.8493 34.4555 76.7226 33.4844 76.7226 32.4287C76.7226 30.1064 77.2293 28.2485 78.2427 26.9817C79.2561 25.715 80.734 25.0816 82.6764 25.0816C83.6475 25.0816 84.4076 25.1661 84.9987 25.2927C85.5476 25.4194 86.0966 25.6305 86.561 25.8416L86.7722 25.9683L87.49 23.6037L87.3211 23.5193C86.8144 23.2659 86.1388 23.0126 85.2521 22.8437C84.3654 22.6748 83.4364 22.5903 82.423 22.5903C81.114 22.5903 79.8895 22.8437 78.8339 23.3082C77.7783 23.7726 76.8493 24.4482 76.1315 25.335C75.3714 26.1795 74.8225 27.2351 74.4003 28.4596C74.0202 29.6419 73.8091 30.9931 73.8091 32.4287C73.8091 33.8644 74.0202 35.1734 74.4003 36.3557C74.7803 37.538 75.3292 38.5936 76.0893 39.4381C76.8071 40.2826 77.7783 40.9582 78.8761 41.4227C79.974 41.8871 81.2829 42.0982 82.7186 42.0982C83.732 42.0982 84.7031 41.9716 85.5899 41.7605C86.5188 41.5493 87.1944 41.296 87.6167 41.0426L87.7433 40.9582L87.1522 38.5514L86.9411 38.7203ZM103.367 26.8551C103.113 26.0106 102.733 25.2505 102.184 24.6594C101.635 24.026 100.918 23.5615 100.073 23.1815C99.2285 22.8437 98.1729 22.6748 96.9484 22.6748C95.7661 22.6748 94.7527 22.7592 93.9082 22.9281C93.0637 23.097 92.4303 23.2659 92.0081 23.4771L91.8814 23.5615L92.2614 25.9683L92.5148 25.8839C92.8103 25.7572 93.2748 25.6305 93.9504 25.4194C94.5838 25.2505 95.5972 25.1661 96.9062 25.1661C97.7929 25.1661 98.5529 25.2927 99.1019 25.5883C99.6508 25.8839 100.073 26.2217 100.369 26.6861C100.664 27.1506 100.875 27.6573 100.96 28.2062C101.044 28.7974 101.086 29.3886 101.086 30.0219V30.8664C101.002 30.8242 100.918 30.8242 100.833 30.782C100.58 30.7397 100.284 30.6553 99.9464 30.6131C99.6086 30.5708 99.2285 30.4864 98.8907 30.4864C98.5107 30.4442 98.1729 30.4442 97.8351 30.4442C96.7373 30.4442 95.6816 30.5708 94.7105 30.782C93.7393 30.9931 92.8948 31.3309 92.2192 31.8376C91.5014 32.3021 90.9524 32.9354 90.5724 33.6533C90.1924 34.3711 89.9813 35.2578 89.9813 36.3134C89.9813 37.3691 90.1502 38.298 90.5302 39.0158C90.868 39.7759 91.3747 40.367 92.0081 40.8737C92.6414 41.3382 93.3593 41.7182 94.2038 41.9293C95.0483 42.1405 95.935 42.2672 96.9062 42.2672C97.6662 42.2672 98.384 42.2249 99.1441 42.1827C99.8619 42.1405 100.537 42.056 101.129 41.9716C101.72 41.8871 102.226 41.8027 102.691 41.7182C103.155 41.6338 103.493 41.5493 103.747 41.4649L103.915 41.4227V29.7686C103.704 28.6285 103.578 27.6996 103.367 26.8551ZM101.002 33.2732V39.3959C100.58 39.4803 100.073 39.5225 99.4819 39.607C98.8063 39.6492 98.0462 39.6914 97.1595 39.6914C96.4417 39.6914 95.8083 39.607 95.2594 39.5225C94.7105 39.3959 94.246 39.1847 93.866 38.9314C93.4859 38.678 93.1904 38.3402 92.9792 37.8758C92.7681 37.4535 92.6837 36.9046 92.6837 36.229C92.6837 35.5112 92.8526 34.92 93.1481 34.4978C93.4437 34.0755 93.866 33.6955 94.3304 33.4421C94.8371 33.1888 95.3861 33.0199 95.935 32.9354C96.5261 32.851 97.1173 32.8088 97.6662 32.8088C98.6374 32.8088 99.3974 32.8932 99.9464 32.9777C100.369 33.0621 100.749 33.1888 101.002 33.2732Z" fill="#676868"/>
</svg>
